<svg xmlns="http://www.w3.org/2000/svg" xmlns:xlink="http://www.w3.org/1999/xlink" width="100" height="100" viewBox="0 0 100 100">
    <defs>
        <path id="a" d="M50 1.984c26.476 0 48.016 21.54 48.016 48.016S76.476 98.016 50 98.016 1.984 76.476 1.984 50 23.524 1.984 50 1.984zM50 0C22.386 0 0 22.386 0 50s22.386 50 50 50 50-22.386 50-50S77.614 0 50 0z"/>
        <path id="c" d="M50.043 28.217c-6.01-6.028-15.808-6.049-21.846-.052a15.31 15.31 0 0 0-4.553 10.897 15.319 15.319 0 0 0 4.497 10.917c3.845 3.856 9.24 5.254 14.208 4.192 2.8-.598 5.451-1.982 7.627-4.142 2.926-2.907 4.556-6.773 4.565-10.892a15.318 15.318 0 0 0-4.498-10.92zM48.59 48.624c-5.265 5.228-13.809 5.206-19.042-.045a13.336 13.336 0 0 1-3.921-9.512 13.34 13.34 0 0 1 3.967-9.494 13.39 13.39 0 0 1 6.658-3.61c4.33-.925 9.034.294 12.383 3.654a13.343 13.343 0 0 1 3.92 9.513 13.329 13.329 0 0 1-3.965 9.494zm1.553-11.87a11.216 11.216 0 0 0-3.043-5.613 11.288 11.288 0 0 0-10.257-3.097l-.011.002a.992.992 0 0 0 .405 1.943 9.306 9.306 0 0 1 8.457 2.554 9.226 9.226 0 0 1 2.508 4.622.991.991 0 0 0 1.174.765h.003a.994.994 0 0 0 .764-1.176zm29.025 33.732l-14.452-14.36a1 1 0 0 0-.167-.169l-7.647-7.68c3.876-7.526 2.676-17.017-3.613-23.333a19.918 19.918 0 0 0-14.164-5.9 19.898 19.898 0 0 0-14.185 5.842c-7.832 7.8-7.859 20.516-.06 28.347 4.985 5.005 11.982 6.823 18.425 5.446 1.684-.36 3.33-.938 4.893-1.736L70.465 79.15a6.142 6.142 0 0 0 5.646 1.668 6.102 6.102 0 0 0 3.04-1.65 6.101 6.101 0 0 0 1.801-4.339 6.092 6.092 0 0 0-1.784-4.344zM26.286 51.833c-7.027-7.055-7.003-18.514.054-25.54a17.94 17.94 0 0 1 8.93-4.863 18.266 18.266 0 0 1 3.85-.401 17.94 17.94 0 0 1 12.761 5.315c7.027 7.058 7.003 18.515-.052 25.542-7.054 7.027-18.515 7.004-25.543-.053zm23.692 4.084a20.119 20.119 0 0 0 5.889-5.865l2.987 3-5.889 5.865-2.987-3zm4.389 4.407l5.889-5.865 2.268 2.278-5.905 5.849-2.252-2.262zm23.384 17.44a4.124 4.124 0 0 1-2.941 1.204 4.133 4.133 0 0 1-2.937-1.217L58.019 63.992l2.248-2.227L72.54 73.938a.994.994 0 0 0 1.408-1.4L61.678 60.37l2.247-2.227 13.838 13.744a4.136 4.136 0 0 1 1.207 2.942 4.14 4.14 0 0 1-1.22 2.934z"/>
    </defs>
    <g fill="none" fill-rule="evenodd">
        <g transform="translate(.085 .085)">
            <mask id="b" fill="#fff">
                <use xlink:href="#a"/>
            </mask>
            <use fill="#000" fill-rule="nonzero" xlink:href="#a"/>
            <g fill="#0D74AF" mask="url(#b)">
                <path d="M0 0h101.01v101.01H0z"/>
            </g>
        </g>
        <mask id="d" fill="#fff">
            <use xlink:href="#c"/>
        </mask>
        <use fill="#000" fill-rule="nonzero" xlink:href="#c"/>
        <g fill="#0D74AF" mask="url(#d)">
            <path d="M0 0h101.01v101.01H0z"/>
        </g>
    </g>
</svg>
