<svg width="6629" height="1224" viewBox="0 0 6629 1224" fill="none" xmlns="http://www.w3.org/2000/svg">
<mask id="mask0" mask-type="alpha" maskUnits="userSpaceOnUse" x="0" y="0" width="1226" height="1224">
<path d="M612.729 1224C951.129 1224 1225.46 949.998 1225.46 612C1225.46 274.002 951.129 0 612.729 0C274.328 0 0 274.002 0 612C0 949.998 274.328 1224 612.729 1224Z" fill="white"/>
</mask>
<g mask="url(#mask0)">
<path d="M612.729 1224C951.129 1224 1225.46 949.998 1225.46 612C1225.46 274.002 951.129 0 612.729 0C274.328 0 0 274.002 0 612C0 949.998 274.328 1224 612.729 1224Z" fill="url(#paint0_linear)"/>
<path fill-rule="evenodd" clip-rule="evenodd" d="M837.22 435.232H900.153L1143.78 505.688L1121.3 1031.5L-673.418 804.379L-617.239 770.25C-402.345 639.698 -229.15 541.72 -97.5173 476.264C36.646 409.55 128.11 376.181 180.447 376.181C217.065 376.181 254.259 385.277 294.511 402.507C325.056 415.582 353.008 430.905 397.713 457.78C401.595 460.114 417.778 469.878 421.952 472.386C431.186 477.935 438.529 482.295 445.533 486.37C462.753 496.386 477.103 504.173 490.475 510.623C521.276 525.48 546.32 532.819 568.159 532.819C637.809 532.819 725.913 501.597 831.79 438.47L837.22 435.232Z" fill="url(#paint1_linear)" stroke="white" stroke-width="45.9"/>
<path fill-rule="evenodd" clip-rule="evenodd" d="M1330.29 904.593L1209.15 1215.27L364.858 1353.12L-61.2648 1213.57L-219.92 899.462L-145.825 643.856L-9.03537 470.708L6.7009 504.431C55.8427 609.743 146.501 661.864 282.781 661.864C329.547 661.864 381.083 648.428 442.057 621.903C468.145 610.555 495.849 596.896 527.974 579.78C551.638 567.172 563.257 560.723 616.62 530.821C697.141 485.701 739.588 463.402 788.368 442.319C861.983 410.502 926.779 393.919 988.777 393.919C1048.59 393.919 1114.93 410.503 1186.23 441.23C1247.52 467.645 1311.37 504.067 1375.12 547.703C1428.85 584.49 1480.81 625.299 1525.27 664.739C1563.84 698.958 1593.82 729.623 1605.92 747.058C1618.62 765.362 1617.25 786.36 1603.06 804.119C1592.3 817.573 1574.18 829.582 1548.38 841.326C1502.72 862.114 1430.21 883.087 1330.29 904.593Z" fill="url(#paint2_linear)" stroke="white" stroke-width="45.9"/>
<path fill-rule="evenodd" clip-rule="evenodd" d="M33.5712 861.045C91.9801 962.446 189.107 1015.46 327.916 1020.61C376.556 1022.42 427.808 1012.52 486.243 991.534C511.304 982.535 537.617 971.552 567.489 957.836C590.296 947.363 608.672 938.464 649.865 918.168C656.14 915.076 658.82 913.756 662.255 912.066C733.629 876.952 773.758 858.73 818.411 842.699C876.877 821.709 929.55 810.789 980.63 810.789C1136.65 810.789 1241.04 887.17 1289.22 1036.5L1295.48 1055.89L553.356 1396.84L-28.9996 1154.5L-51.0364 862.8L25.239 846.58L33.5712 861.045Z" fill="url(#paint3_linear)" stroke="white" stroke-width="45.9"/>
</g>
<path d="M5494.52 757.062H5679.04V789.372H5494.52V757.062Z" fill="#ffffff"/>
<path d="M6280.63 588.332C6327.06 588.332 6363.43 601.974 6389.76 629.258C6416.57 656.542 6429.97 695.793 6429.97 747.01V966H6394.07V749.882C6394.07 707.759 6383.78 675.689 6363.2 653.67C6342.61 631.651 6313.89 620.642 6277.04 620.642C6234.91 620.642 6201.41 633.805 6176.52 660.132C6152.1 686.459 6139.9 721.88 6139.9 766.396V966H6104V749.882C6104 707.759 6093.71 675.689 6073.12 653.67C6052.54 631.651 6023.82 620.642 5986.96 620.642C5944.84 620.642 5911.33 633.805 5886.44 660.132C5862.03 686.459 5849.83 721.88 5849.83 766.396V966H5813.93V591.204H5848.39V671.62C5860.83 645.293 5879.26 624.95 5903.68 610.59C5928.57 595.751 5958 588.332 5991.99 588.332C6025.97 588.332 6054.69 595.991 6078.15 611.308C6102.08 626.626 6119.08 649.123 6129.13 678.8C6141.57 651.037 6160.96 629.019 6187.29 612.744C6214.09 596.469 6245.2 588.332 6280.63 588.332Z" fill="#ffffff"/>
<path d="M6592.56 433.244H6628.46V966H6592.56V433.244Z" fill="#ffffff"/>
<path d="M1642.67 529.846C1659.3 494.583 1683.92 467.97 1716.52 450.006C1749.78 432.042 1790.7 423.06 1839.27 423.06V491.922L1822.31 490.924C1767.08 490.924 1723.84 507.89 1692.57 541.822C1661.3 575.754 1645.66 623.325 1645.66 684.536V952H1574.8V427.052H1642.67V529.846Z" fill="#ffffff"/>
<path d="M2458.4 427.052V952H2390.53V856.192C2371.91 888.128 2346.29 913.078 2313.69 931.042C2281.09 948.341 2243.83 956.99 2201.91 956.99C2133.38 956.99 2079.16 938.028 2039.24 900.104C1999.98 861.515 1980.36 805.294 1980.36 731.442V427.052H2051.21V724.456C2051.21 779.679 2064.85 821.595 2092.13 850.204C2119.41 878.813 2158.33 893.118 2208.9 893.118C2264.12 893.118 2307.7 876.485 2339.64 843.218C2371.57 809.286 2387.54 762.38 2387.54 702.5V427.052H2458.4Z" fill="#ffffff"/>
<path d="M2937.29 423.06C2986.52 423.06 3031.1 434.371 3071.02 456.992C3110.94 478.948 3142.21 510.219 3164.83 550.804C3187.46 591.389 3198.77 637.63 3198.77 689.526C3198.77 741.422 3187.46 787.663 3164.83 828.248C3142.21 868.833 3110.94 900.437 3071.02 923.058C3031.1 945.679 2986.52 956.99 2937.29 956.99C2893.38 956.99 2853.79 947.675 2818.53 929.046C2783.93 910.417 2755.99 883.471 2734.7 848.208V952H2666.83V211.484H2737.69V526.852C2759.65 492.92 2787.59 467.305 2821.52 450.006C2856.12 432.042 2894.71 423.06 2937.29 423.06ZM2932.3 894.116C2968.89 894.116 3002.16 885.799 3032.1 869.166C3062.04 851.867 3085.33 827.583 3101.96 796.312C3119.26 765.041 3127.91 729.446 3127.91 689.526C3127.91 649.606 3119.26 614.011 3101.96 582.74C3085.33 551.469 3062.04 527.517 3032.1 510.884C3002.16 493.585 2968.89 484.936 2932.3 484.936C2895.04 484.936 2861.44 493.585 2831.5 510.884C2802.23 527.517 2778.94 551.469 2761.64 582.74C2745.01 614.011 2736.69 649.606 2736.69 689.526C2736.69 729.446 2745.01 765.041 2761.64 796.312C2778.94 827.583 2802.23 851.867 2831.5 869.166C2861.44 885.799 2895.04 894.116 2932.3 894.116Z" fill="#ffffff"/>
<path d="M3353.19 427.052H3424.05V952H3353.19V427.052ZM3389.12 312.282C3374.48 312.282 3362.17 307.292 3352.19 297.312C3342.21 287.332 3337.22 275.356 3337.22 261.384C3337.22 248.077 3342.21 236.434 3352.19 226.454C3362.17 216.474 3374.48 211.484 3389.12 211.484C3403.76 211.484 3416.07 216.474 3426.05 226.454C3436.03 235.769 3441.02 247.079 3441.02 260.386C3441.02 275.023 3436.03 287.332 3426.05 297.312C3416.07 307.292 3403.76 312.282 3389.12 312.282Z" fill="#ffffff"/>
<path d="M3848.75 956.99C3796.86 956.99 3750.28 945.679 3709.03 923.058C3668.45 900.437 3636.51 868.833 3613.22 828.248C3589.94 786.997 3578.29 740.757 3578.29 689.526C3578.29 638.295 3589.94 592.387 3613.22 551.802C3636.51 511.217 3668.45 479.613 3709.03 456.992C3750.28 434.371 3796.86 423.06 3848.75 423.06C3894 423.06 3934.25 432.042 3969.51 450.006C4005.44 467.305 4033.72 492.92 4054.34 526.852L4001.45 562.78C3984.15 536.832 3962.19 517.537 3935.58 504.896C3908.97 491.589 3880.02 484.936 3848.75 484.936C3810.83 484.936 3776.56 493.585 3745.96 510.884C3716.02 527.517 3692.4 551.469 3675.1 582.74C3658.47 614.011 3650.15 649.606 3650.15 689.526C3650.15 730.111 3658.47 766.039 3675.1 797.31C3692.4 827.915 3716.02 851.867 3745.96 869.166C3776.56 885.799 3810.83 894.116 3848.75 894.116C3880.02 894.116 3908.97 887.795 3935.58 875.154C3962.19 862.513 3984.15 843.218 4001.45 817.27L4054.34 853.198C4033.72 887.13 4005.44 913.078 3969.51 931.042C3933.58 948.341 3893.33 956.99 3848.75 956.99Z" fill="#ffffff"/>
<path d="M4409.32 956.99C4358.75 956.99 4313.18 945.679 4272.59 923.058C4232.01 899.771 4200.07 867.835 4176.78 827.25C4153.5 786.665 4141.85 740.757 4141.85 689.526C4141.85 638.295 4153.5 592.387 4176.78 551.802C4200.07 511.217 4232.01 479.613 4272.59 456.992C4313.18 434.371 4358.75 423.06 4409.32 423.06C4459.88 423.06 4505.46 434.371 4546.04 456.992C4586.63 479.613 4618.23 511.217 4640.85 551.802C4664.14 592.387 4675.78 638.295 4675.78 689.526C4675.78 740.757 4664.14 786.665 4640.85 827.25C4618.23 867.835 4586.63 899.771 4546.04 923.058C4505.46 945.679 4459.88 956.99 4409.32 956.99ZM4409.32 894.116C4446.58 894.116 4479.84 885.799 4509.12 869.166C4539.06 851.867 4562.34 827.583 4578.98 796.312C4595.61 765.041 4603.93 729.446 4603.93 689.526C4603.93 649.606 4595.61 614.011 4578.98 582.74C4562.34 551.469 4539.06 527.517 4509.12 510.884C4479.84 493.585 4446.58 484.936 4409.32 484.936C4372.06 484.936 4338.46 493.585 4308.52 510.884C4279.24 527.517 4255.96 551.469 4238.66 582.74C4222.03 614.011 4213.71 649.606 4213.71 689.526C4213.71 729.446 4222.03 765.041 4238.66 796.312C4255.96 827.583 4279.24 851.867 4308.52 869.166C4338.46 885.799 4372.06 894.116 4409.32 894.116Z" fill="#ffffff"/>
<path d="M5097.89 423.06C5163.76 423.06 5215.99 442.355 5254.58 480.944C5293.83 518.868 5313.46 574.423 5313.46 647.61V952H5242.6V654.596C5242.6 600.039 5228.96 558.455 5201.68 529.846C5174.4 501.237 5135.48 486.932 5084.92 486.932C5028.36 486.932 4983.45 503.898 4950.19 537.83C4917.58 571.097 4901.28 617.337 4901.28 676.552V952H4830.43V427.052H4898.29V523.858C4917.58 491.922 4944.2 467.305 4978.13 450.006C5012.73 432.042 5052.65 423.06 5097.89 423.06Z" fill="#ffffff"/>
<defs>
<linearGradient id="paint0_linear" x1="612.729" y1="0" x2="612.729" y2="1224" gradientUnits="userSpaceOnUse">
<stop stop-color="#E2F4FE"/>
<stop offset="1" stop-color="#97D6ED"/>
</linearGradient>
<linearGradient id="paint1_linear" x1="-56.8245" y1="299.696" x2="-4.63461" y2="834.312" gradientUnits="userSpaceOnUse">
<stop stop-color="#019ED5"/>
<stop offset="1" stop-color="#003362"/>
</linearGradient>
<linearGradient id="paint2_linear" x1="746.205" y1="437.978" x2="807.142" y2="893.844" gradientUnits="userSpaceOnUse">
<stop stop-color="#009ED5"/>
<stop offset="1" stop-color="#003362"/>
</linearGradient>
<linearGradient id="paint3_linear" x1="664.533" y1="810.789" x2="704.345" y2="1179.18" gradientUnits="userSpaceOnUse">
<stop stop-color="#009ED5"/>
<stop offset="1" stop-color="#003362"/>
</linearGradient>
</defs>
</svg>
