<?xml version="1.0" encoding="UTF-8" standalone="no"?>
<svg
   xmlns:dc="http://purl.org/dc/elements/1.1/"
   xmlns:cc="http://creativecommons.org/ns#"
   xmlns:rdf="http://www.w3.org/1999/02/22-rdf-syntax-ns#"
   xmlns:svg="http://www.w3.org/2000/svg"
   xmlns="http://www.w3.org/2000/svg"
   xmlns:sodipodi="http://sodipodi.sourceforge.net/DTD/sodipodi-0.dtd"
   xmlns:inkscape="http://www.inkscape.org/namespaces/inkscape"
   width="5483.0942"
   height="1224"
   viewBox="0 0 5483.0942 1224"
   fill="none"
   version="1.1"
   id="svg2195"
   sodipodi:docname="rubicon_ml_logo_offset_light.svg"
   inkscape:version="1.0.2 (e86c8708, 2021-01-15)">
  <metadata
     id="metadata2199">
    <rdf:RDF>
      <cc:Work
         rdf:about="">
        <dc:format>image/svg+xml</dc:format>
        <dc:type
           rdf:resource="http://purl.org/dc/dcmitype/StillImage" />
        <dc:title></dc:title>
      </cc:Work>
    </rdf:RDF>
  </metadata>
  <sodipodi:namedview
     pagecolor="#ffffff"
     bordercolor="#666666"
     borderopacity="1"
     objecttolerance="10"
     gridtolerance="10"
     guidetolerance="10"
     inkscape:pageopacity="0"
     inkscape:pageshadow="2"
     inkscape:window-width="1680"
     inkscape:window-height="997"
     id="namedview2197"
     showgrid="false"
     fit-margin-top="0"
     fit-margin-left="0"
     fit-margin-right="0"
     fit-margin-bottom="0"
     inkscape:zoom="0.15869664"
     inkscape:cx="3314.5"
     inkscape:cy="612"
     inkscape:window-x="0"
     inkscape:window-y="25"
     inkscape:window-maximized="1"
     inkscape:current-layer="svg2195" />
  <mask
     id="mask0"
     mask-type="alpha"
     maskUnits="userSpaceOnUse"
     x="0"
     y="0"
     width="1226"
     height="1224">
    <path
       d="m 612.729,1224 c 338.4,0 612.731,-274.002 612.731,-612 C 1225.46,274.002 951.129,0 612.729,0 274.328,0 0,274.002 0,612 c 0,337.998 274.328,612 612.729,612 z"
       fill="#ffffff"
       id="path2140" />
  </mask>
  <g
     mask="url(#mask0)"
     id="g2151">
    <path
       d="m 612.729,1224 c 338.4,0 612.731,-274.002 612.731,-612 C 1225.46,274.002 951.129,0 612.729,0 274.328,0 0,274.002 0,612 c 0,337.998 274.328,612 612.729,612 z"
       fill="url(#paint0_linear)"
       id="path2143"
       style="fill:url(#paint0_linear)" />
    <path
       fill-rule="evenodd"
       clip-rule="evenodd"
       d="m 837.22,435.232 h 62.933 L 1143.78,505.688 1121.3,1031.5 -673.418,804.379 -617.239,770.25 C -402.345,639.698 -229.15,541.72 -97.5173,476.264 36.646,409.55 128.11,376.181 180.447,376.181 c 36.618,0 73.812,9.096 114.064,26.326 30.545,13.075 58.497,28.398 103.202,55.273 3.882,2.334 20.065,12.098 24.239,14.606 9.234,5.549 16.577,9.909 23.581,13.984 17.22,10.016 31.57,17.803 44.942,24.253 30.801,14.857 55.845,22.196 77.684,22.196 69.65,0 157.754,-31.222 263.631,-94.349 z"
       fill="url(#paint1_linear)"
       stroke="#ffffff"
       stroke-width="45.9"
       id="path2145"
       style="fill:url(#paint1_linear)" />
    <path
       fill-rule="evenodd"
       clip-rule="evenodd"
       d="M 1330.29,904.593 1209.15,1215.27 364.858,1353.12 -61.2648,1213.57 -219.92,899.462 -145.825,643.856 -9.03537,470.708 6.7009,504.431 c 49.1418,105.312 139.8001,157.433 276.0801,157.433 46.766,0 98.302,-13.436 159.276,-39.961 26.088,-11.348 53.792,-25.007 85.917,-42.123 23.664,-12.608 35.283,-19.057 88.646,-48.959 80.521,-45.12 122.968,-67.419 171.748,-88.502 73.615,-31.817 138.411,-48.4 200.409,-48.4 59.813,0 126.153,16.584 197.453,47.311 61.29,26.415 125.14,62.837 188.89,106.473 53.73,36.787 105.69,77.596 150.15,117.036 38.57,34.219 68.55,64.884 80.65,82.319 12.7,18.304 11.33,39.302 -2.86,57.061 -10.76,13.454 -28.88,25.463 -54.68,37.207 -45.66,20.788 -118.17,41.761 -218.09,63.267 z"
       fill="url(#paint2_linear)"
       stroke="#ffffff"
       stroke-width="45.9"
       id="path2147"
       style="fill:url(#paint2_linear)" />
    <path
       fill-rule="evenodd"
       clip-rule="evenodd"
       d="m 33.5712,861.045 c 58.4089,101.401 155.5358,154.415 294.3448,159.565 48.64,1.81 99.892,-8.09 158.327,-29.076 25.061,-8.999 51.374,-19.982 81.246,-33.698 22.807,-10.473 41.183,-19.372 82.376,-39.668 6.275,-3.092 8.955,-4.412 12.39,-6.102 71.374,-35.114 111.503,-53.336 156.156,-69.367 58.466,-20.99 111.139,-31.91 162.219,-31.91 156.02,0 260.41,76.381 308.59,225.711 l 6.26,19.39 L 553.356,1396.84 -28.9996,1154.5 -51.0364,862.8 25.239,846.58 Z"
       fill="url(#paint3_linear)"
       stroke="#ffffff"
       stroke-width="45.9"
       id="path2149"
       style="fill:url(#paint3_linear)" />
  </g>
  <path
     d="m 4575.942,523.398 h 147.616 v 25.848 h -147.616 z"
     fill="#273b49"
     id="path2153"
     style="stroke-width:0.8" />
  <path
     d="m 5204.83,388.414 c 37.144,0 66.24,10.9136 87.304,32.7408 21.448,21.8272 32.168,53.228 32.168,94.2016 v 175.192 h -28.72 V 517.654 c 0,-33.6984 -8.232,-59.3544 -24.696,-76.9696 -16.472,-17.6152 -39.448,-26.4224 -68.928,-26.4224 -33.704,0 -60.504,10.5304 -80.416,31.592 -19.536,21.0616 -29.296,49.3984 -29.296,85.0112 v 159.6832 h -28.72 V 517.654 c 0,-33.6984 -8.232,-59.3544 -24.704,-76.9696 -16.464,-17.6152 -39.44,-26.4224 -68.928,-26.4224 -33.696,0 -60.504,10.5304 -80.416,31.592 -19.528,21.0616 -29.288,49.3984 -29.288,85.0112 v 159.6832 h -28.72 V 390.7116 h 27.568 v 64.3328 c 9.952,-21.0616 24.696,-37.336 44.232,-48.824 19.912,-11.8712 43.456,-17.8064 70.648,-17.8064 27.184,0 50.16,6.1272 68.928,18.3808 19.144,12.2544 32.744,30.252 40.784,53.9936 9.952,-22.2104 25.464,-39.8248 46.528,-52.8448 21.44,-13.02 46.328,-19.5296 74.672,-19.5296 z"
     fill="#273b49"
     id="path2155"
     style="stroke-width:0.8" />
  <path
     d="m 5454.374,264.3436 h 28.72 v 426.2048 h -28.72 z"
     fill="#273b49"
     id="path2157"
     style="stroke-width:0.8" />
  <path
     d="m 1494.462,341.6252 c 13.304,-28.2104 33,-49.5008 59.08,-63.872 26.608,-14.3712 59.344,-21.5568 98.2,-21.5568 v 55.0896 l -13.568,-0.7984 c -44.184,0 -78.776,13.5728 -103.792,40.7184 -25.016,27.1456 -37.528,65.2024 -37.528,114.1712 v 213.9712 h -56.688 V 259.39 h 54.296 z"
     fill="#273b49"
     id="path2159"
     style="stroke-width:0.8" />
  <path
     d="M 2147.046,259.39 V 679.3484 H 2092.75 V 602.702 c -14.896,25.5488 -35.392,45.5088 -61.472,59.88 -26.08,13.8392 -55.888,20.7584 -89.424,20.7584 -54.824,0 -98.2,-15.1696 -130.136,-45.5088 -31.408,-30.8712 -47.104,-75.848 -47.104,-134.9296 V 259.39 h 56.68 v 237.9232 c 0,44.1784 10.912,77.7112 32.736,100.5984 21.824,22.8872 52.96,34.3312 93.416,34.3312 44.176,0 79.04,-13.3064 104.592,-39.92 25.544,-27.1456 38.32,-64.6704 38.32,-112.5744 V 259.39 Z"
     fill="#273b49"
     id="path2161"
     style="stroke-width:0.8" />
  <path
     d="m 2530.158,256.1964 c 39.384,0 75.048,9.0488 106.984,27.1456 31.936,17.5648 56.952,42.5816 75.048,75.0496 18.104,32.468 27.152,69.4608 27.152,110.9776 0,41.5168 -9.048,78.5096 -27.152,110.9776 -18.096,32.468 -43.112,57.7512 -75.048,75.848 -31.936,18.0968 -67.6,27.1456 -106.984,27.1456 -35.128,0 -66.8,-7.452 -95.008,-22.3552 -27.68,-14.9032 -50.032,-36.46 -67.064,-64.6704 v 83.0336 H 2313.79 V 86.9356 h 56.688 V 339.23 c 17.568,-27.1456 39.92,-47.6376 67.064,-61.4768 27.68,-14.3712 58.552,-21.5568 92.616,-21.5568 z m -3.992,376.8448 c 29.272,0 55.888,-6.6536 79.84,-19.96 23.952,-13.8392 42.584,-33.2664 55.888,-58.2832 13.84,-25.0168 20.76,-53.4928 20.76,-85.4288 0,-31.936 -6.92,-60.412 -20.76,-85.4288 -13.304,-25.0168 -31.936,-44.1784 -55.888,-57.4848 -23.952,-13.8392 -50.568,-20.7584 -79.84,-20.7584 -29.808,0 -56.688,6.9192 -80.64,20.7584 -23.416,13.3064 -42.048,32.468 -55.888,57.4848 -13.304,25.0168 -19.96,53.4928 -19.96,85.4288 0,31.936 6.656,60.412 19.96,85.4288 13.84,25.0168 32.472,44.444 55.888,58.2832 23.952,13.3064 50.832,19.96 80.64,19.96 z"
     fill="#273b49"
     id="path2163"
     style="stroke-width:0.8" />
  <path
     d="m 2862.878,259.39 h 56.688 v 419.9584 h -56.688 z m 28.744,-91.816 c -11.712,0 -21.56,-3.992 -29.544,-11.976 -7.984,-7.984 -11.976,-17.5648 -11.976,-28.7424 0,-10.6456 3.992,-19.96 11.976,-27.944 7.984,-7.984 17.832,-11.976 29.544,-11.976 11.712,0 21.56,3.992 29.544,11.976 7.984,7.452 11.976,16.5 11.976,27.1456 0,11.7096 -3.992,21.5568 -11.976,29.5408 -7.984,7.984 -17.832,11.976 -29.544,11.976 z"
     fill="#273b49"
     id="path2165"
     style="stroke-width:0.8" />
  <path
     d="m 3259.326,683.3404 c -41.512,0 -78.776,-9.0488 -111.776,-27.1456 -32.464,-18.0968 -58.016,-43.38 -76.648,-75.848 -18.624,-33.0008 -27.944,-69.9928 -27.944,-110.9776 0,-40.9848 9.32,-77.7112 27.944,-110.1792 18.632,-32.468 44.184,-57.7512 76.648,-75.848 33,-18.0968 70.264,-27.1456 111.776,-27.1456 36.2,0 68.4,7.1856 96.608,21.5568 28.744,13.8392 51.368,34.3312 67.864,61.4768 l -42.312,28.7424 c -13.84,-20.7584 -31.408,-36.1944 -52.696,-46.3072 -21.288,-10.6456 -44.448,-15.968 -69.464,-15.968 -30.336,0 -57.752,6.9192 -82.232,20.7584 -23.952,13.3064 -42.848,32.468 -56.688,57.4848 -13.304,25.0168 -19.96,53.4928 -19.96,85.4288 0,32.468 6.656,61.2104 19.96,86.2272 13.84,24.484 32.736,43.6456 56.688,57.4848 24.48,13.3064 51.896,19.96 82.232,19.96 25.016,0 48.176,-5.0568 69.464,-15.1696 21.288,-10.1128 38.856,-25.5488 52.696,-46.3072 l 42.312,28.7424 c -16.496,27.1456 -39.12,47.904 -67.864,62.2752 -28.744,13.8392 -60.944,20.7584 -96.608,20.7584 z"
     fill="#273b49"
     id="path2167"
     style="stroke-width:0.8" />
  <path
     d="m 3707.782,683.3404 c -40.456,0 -76.912,-9.0488 -109.384,-27.1456 -32.464,-18.6296 -58.016,-44.1784 -76.648,-76.6464 -18.624,-32.468 -27.944,-69.1944 -27.944,-110.1792 0,-40.9848 9.32,-77.7112 27.944,-110.1792 18.632,-32.468 44.184,-57.7512 76.648,-75.848 32.472,-18.0968 68.928,-27.1456 109.384,-27.1456 40.448,0 76.912,9.0488 109.376,27.1456 32.472,18.0968 57.752,43.38 75.848,75.848 18.632,32.468 27.944,69.1944 27.944,110.1792 0,40.9848 -9.312,77.7112 -27.944,110.1792 -18.096,32.468 -43.376,58.0168 -75.848,76.6464 -32.464,18.0968 -68.928,27.1456 -109.376,27.1456 z m 0,-50.2992 c 29.808,0 56.416,-6.6536 79.84,-19.96 23.952,-13.8392 42.576,-33.2664 55.888,-58.2832 13.304,-25.0168 19.96,-53.4928 19.96,-85.4288 0,-31.936 -6.656,-60.412 -19.96,-85.4288 -13.312,-25.0168 -31.936,-44.1784 -55.888,-57.4848 -23.424,-13.8392 -50.032,-20.7584 -79.84,-20.7584 -29.808,0 -56.688,6.9192 -80.64,20.7584 -23.424,13.3064 -42.048,32.468 -55.888,57.4848 -13.304,25.0168 -19.96,53.4928 -19.96,85.4288 0,31.936 6.656,60.412 19.96,85.4288 13.84,25.0168 32.464,44.444 55.888,58.2832 23.952,13.3064 50.832,19.96 80.64,19.96 z"
     fill="#273b49"
     id="path2169"
     style="stroke-width:0.8" />
  <path
     d="m 4258.638,256.1964 c 52.696,0 94.48,15.436 125.352,46.3072 31.4,30.3392 47.104,74.7832 47.104,133.3328 v 243.512 h -56.688 V 441.4252 c 0,-43.6456 -10.912,-76.9128 -32.736,-99.8 -21.824,-22.8872 -52.96,-34.3312 -93.408,-34.3312 -45.248,0 -81.176,13.5728 -107.784,40.7184 -26.088,26.6136 -39.128,63.6056 -39.128,110.9776 v 220.3584 h -56.68 V 259.39 h 54.288 v 77.4448 c 15.432,-25.5488 36.728,-45.2424 63.872,-59.0816 27.68,-14.3712 59.616,-21.5568 95.808,-21.5568 z"
     fill="#273b49"
     id="path2171"
     style="stroke-width:0.8" />
  <defs
     id="defs2193">
    <linearGradient
       id="paint0_linear"
       x1="612.729"
       y1="0"
       x2="612.729"
       y2="1224"
       gradientUnits="userSpaceOnUse">
      <stop
         stop-color="#E2F4FE"
         id="stop2173" />
      <stop
         offset="1"
         stop-color="#97D6ED"
         id="stop2175" />
    </linearGradient>
    <linearGradient
       id="paint1_linear"
       x1="-56.824501"
       y1="299.69601"
       x2="-4.6346102"
       y2="834.31201"
       gradientUnits="userSpaceOnUse">
      <stop
         stop-color="#019ED5"
         id="stop2178" />
      <stop
         offset="1"
         stop-color="#003362"
         id="stop2180" />
    </linearGradient>
    <linearGradient
       id="paint2_linear"
       x1="746.20502"
       y1="437.978"
       x2="807.14203"
       y2="893.84399"
       gradientUnits="userSpaceOnUse">
      <stop
         stop-color="#009ED5"
         id="stop2183" />
      <stop
         offset="1"
         stop-color="#003362"
         id="stop2185" />
    </linearGradient>
    <linearGradient
       id="paint3_linear"
       x1="664.53302"
       y1="810.789"
       x2="704.34497"
       y2="1179.1801"
       gradientUnits="userSpaceOnUse">
      <stop
         stop-color="#009ED5"
         id="stop2188" />
      <stop
         offset="1"
         stop-color="#003362"
         id="stop2190" />
    </linearGradient>
  </defs>
</svg>
