<?xml version="1.0" encoding="utf-8"?>
<svg viewBox="2225.974 -45.413 1307.186 1313.609" fill="none" xmlns="http://www.w3.org/2000/svg">
  <defs>
    <linearGradient id="paint0_linear" x1="612.729" y1="0" x2="612.729" y2="1224" gradientUnits="userSpaceOnUse">
      <stop stop-color="#E2F4FE"/>
      <stop offset="1" stop-color="#97D6ED"/>
    </linearGradient>
    <linearGradient id="paint1_linear" x1="-56.8245" y1="299.696" x2="-4.63461" y2="834.312" gradientUnits="userSpaceOnUse">
      <stop stop-color="#019ED5"/>
      <stop offset="1" stop-color="#003362"/>
    </linearGradient>
    <linearGradient id="paint2_linear" x1="746.205" y1="437.978" x2="807.142" y2="893.844" gradientUnits="userSpaceOnUse">
      <stop stop-color="#009ED5"/>
      <stop offset="1" stop-color="#003362"/>
    </linearGradient>
    <linearGradient id="paint3_linear" x1="664.533" y1="810.789" x2="704.345" y2="1179.18" gradientUnits="userSpaceOnUse">
      <stop stop-color="#009ED5"/>
      <stop offset="1" stop-color="#003362"/>
    </linearGradient>
  </defs>
  <mask id="mask0" mask-type="alpha" maskUnits="userSpaceOnUse" x="0" y="0" width="1226" height="1224">
    <path d="M612.729 1224C951.129 1224 1225.46 949.998 1225.46 612C1225.46 274.002 951.129 0 612.729 0C274.328 0 0 274.002 0 612C0 949.998 274.328 1224 612.729 1224Z" fill="white"/>
  </mask>
  <circle style="fill: rgb(255, 255, 255);" cx="2879.961" cy="610.774" r="652.849"/>
  <g mask="url(#mask0)" transform="matrix(1, 0, 0, 1, 2266.402832, 2.070756)">
    <path d="M612.729 1224C951.129 1224 1225.46 949.998 1225.46 612C1225.46 274.002 951.129 0 612.729 0C274.328 0 0 274.002 0 612C0 949.998 274.328 1224 612.729 1224Z" fill="url(#paint0_linear)"/>
    <path fill-rule="evenodd" clip-rule="evenodd" d="M837.22 435.232H900.153L1143.78 505.688L1121.3 1031.5L-673.418 804.379L-617.239 770.25C-402.345 639.698 -229.15 541.72 -97.5173 476.264C36.646 409.55 128.11 376.181 180.447 376.181C217.065 376.181 254.259 385.277 294.511 402.507C325.056 415.582 353.008 430.905 397.713 457.78C401.595 460.114 417.778 469.878 421.952 472.386C431.186 477.935 438.529 482.295 445.533 486.37C462.753 496.386 477.103 504.173 490.475 510.623C521.276 525.48 546.32 532.819 568.159 532.819C637.809 532.819 725.913 501.597 831.79 438.47L837.22 435.232Z" stroke-width="45.9" stroke="white" fill="url(#paint1_linear)"/>
    <path fill-rule="evenodd" clip-rule="evenodd" d="M1330.29 904.593L1209.15 1215.27L364.858 1353.12L-61.2648 1213.57L-219.92 899.462L-145.825 643.856L-9.03537 470.708L6.7009 504.431C55.8427 609.743 146.501 661.864 282.781 661.864C329.547 661.864 381.083 648.428 442.057 621.903C468.145 610.555 495.849 596.896 527.974 579.78C551.638 567.172 563.257 560.723 616.62 530.821C697.141 485.701 739.588 463.402 788.368 442.319C861.983 410.502 926.779 393.919 988.777 393.919C1048.59 393.919 1114.93 410.503 1186.23 441.23C1247.52 467.645 1311.37 504.067 1375.12 547.703C1428.85 584.49 1480.81 625.299 1525.27 664.739C1563.84 698.958 1593.82 729.623 1605.92 747.058C1618.62 765.362 1617.25 786.36 1603.06 804.119C1592.3 817.573 1574.18 829.582 1548.38 841.326C1502.72 862.114 1430.21 883.087 1330.29 904.593Z" stroke-width="45.9" stroke="white" fill="url(#paint2_linear)"/>
    <path fill-rule="evenodd" clip-rule="evenodd" d="M33.5712 861.045C91.9801 962.446 189.107 1015.46 327.916 1020.61C376.556 1022.42 427.808 1012.52 486.243 991.534C511.304 982.535 537.617 971.552 567.489 957.836C590.296 947.363 608.672 938.464 649.865 918.168C656.14 915.076 658.82 913.756 662.255 912.066C733.629 876.952 773.758 858.73 818.411 842.699C876.877 821.709 929.55 810.789 980.63 810.789C1136.65 810.789 1241.04 887.17 1289.22 1036.5L1295.48 1055.89L553.356 1396.84L-28.9996 1154.5L-51.0364 862.8L25.239 846.58L33.5712 861.045Z" stroke-width="45.9" stroke="white" fill="url(#paint3_linear)"/>
  </g>
</svg>