<?xml version="1.0" encoding="UTF-8"?>
<svg width="5630px" height="1224px" viewBox="0 0 5630 1224" version="1.1" xmlns="http://www.w3.org/2000/svg" xmlns:xlink="http://www.w3.org/1999/xlink">
    <!-- Generator: Sketch 52.6 (67491) - http://www.bohemiancoding.com/sketch -->
    <title>Rubicon_Logo</title>
    <desc>Created with Sketch.</desc>
    <defs>
        <linearGradient x1="50%" y1="0%" x2="50%" y2="100%" id="linearGradient-1">
            <stop stop-color="#E2F4FE" offset="0%"></stop>
            <stop stop-color="#97D6ED" offset="100%"></stop>
        </linearGradient>
        <ellipse id="path-2" cx="612.728707" cy="612" rx="612.728707" ry="612"></ellipse>
        <linearGradient x1="33.9310172%" y1="-11.6714512%" x2="54.7037758%" y2="65.0641987%" id="linearGradient-4">
            <stop stop-color="#019ED5" offset="0%"></stop>
            <stop stop-color="#003362" offset="100%"></stop>
        </linearGradient>
        <linearGradient x1="52.6626253%" y1="4.59322878%" x2="64.2712882%" y2="50%" id="linearGradient-5">
            <stop stop-color="#009ED5" offset="0%"></stop>
            <stop stop-color="#003362" offset="100%"></stop>
        </linearGradient>
        <linearGradient x1="53.1422042%" y1="0%" x2="68.0156951%" y2="59.9011575%" id="linearGradient-6">
            <stop stop-color="#009ED5" offset="0%"></stop>
            <stop stop-color="#003362" offset="100%"></stop>
        </linearGradient>
    </defs>
    <g id="Rubicon_Logo" stroke="none" stroke-width="1" fill="none" fill-rule="evenodd">
        <g id="Rubicon_Logo_Print">
            <g id="Mark">
                <mask id="mask-3" fill="white">
                    <use xlink:href="#path-2"></use>
                </mask>
                <use id="Mask" fill="url(#linearGradient-1)" xlink:href="#path-2"></use>
                <path d="M837.220049,435.231471 L900.153328,435.231471 L1143.7791,505.687396 L1121.29507,1031.49542 L-673.417978,804.379134 L-617.238739,770.249255 C-402.345462,639.697794 -229.149917,541.719893 -97.517343,476.264102 C36.646023,409.549845 128.110223,376.180435 180.446939,376.180435 C217.065153,376.180435 254.259152,385.276502 294.510947,402.506857 C325.05621,415.582193 353.007818,430.904511 397.712889,457.780141 C401.595238,460.114117 417.777641,469.877862 421.951818,472.386183 C431.186215,477.935261 438.529404,482.295211 445.533241,486.369456 C462.752558,496.386213 477.103164,504.172663 490.475123,510.622819 C521.276055,525.480089 546.320018,532.818342 568.158972,532.818342 C637.80857,532.818342 725.912753,501.597128 831.789504,438.469369 L837.220049,435.231471 Z" id="Path-7" stroke="#FFFFFF" stroke-width="45.9" fill="url(#linearGradient-4)" mask="url(#mask-3)"></path>
                <path d="M1330.28662,904.593021 L1209.14972,1215.26733 L364.857918,1353.12478 L-61.2647988,1213.57445 L-219.91996,899.462362 L-145.825098,643.856215 L-9.03540307,470.708109 L6.70086572,504.431367 C55.8426718,609.743612 146.501359,661.864453 282.780854,661.864453 C329.547359,661.864453 381.083183,648.427921 442.05735,621.903112 C468.144535,610.554739 495.849263,596.896249 527.973881,579.780474 C551.63828,567.172246 563.257188,560.722902 616.620376,530.820964 C697.141332,485.701235 739.587639,463.402555 788.367684,442.319512 C861.982813,410.50259 926.779203,393.919565 988.776902,393.919565 C1048.58577,393.919565 1114.93124,410.502926 1186.2308,441.23061 C1247.52317,467.645537 1311.37331,504.067273 1375.11572,547.703505 C1428.85219,584.489964 1480.80712,625.298659 1525.26902,664.738958 C1563.84488,698.957994 1593.82093,729.623001 1605.91807,747.057748 C1618.61878,765.362383 1617.24956,786.360018 1603.05717,804.11905 C1592.30496,817.573375 1574.18121,829.581898 1548.38307,841.326556 C1502.72153,862.114076 1430.2128,883.087088 1330.28662,904.593021 Z" id="Path-5" stroke="#FFFFFF" stroke-width="45.9" fill="url(#linearGradient-5)" mask="url(#mask-3)"></path>
                <path d="" id="Path-6" stroke="#979797" stroke-width="15.3" fill="#D8D8D8" mask="url(#mask-3)"></path>
                <path d="M33.5711584,861.045046 C91.9800629,962.446218 189.107193,1015.45939 327.915834,1020.61259 C376.555851,1022.41833 427.807591,1012.51642 486.243182,991.533883 C511.303483,982.535452 537.616846,971.552081 567.488936,957.83555 C590.295594,947.363293 608.672211,938.463647 649.865475,918.167628 C656.140352,915.075982 658.82044,913.755977 662.255195,912.066177 C733.629144,876.952266 773.758203,858.729921 818.410811,842.699196 C876.876964,821.709274 929.549472,810.78913 980.629559,810.78913 C1136.65041,810.78913 1241.04269,887.169598 1289.22348,1036.49978 L1295.48089,1055.8938 L553.355505,1396.84146 L-28.9996532,1154.50194 L-51.0363924,862.799888 L25.2389886,846.579926 L33.5711584,861.045046 Z" id="Path-4" stroke="#FFFFFF" stroke-width="45.9" fill="url(#linearGradient-6)" mask="url(#mask-3)"></path>
            </g>
            <path d="M2064.52278,966.782609 L1902.54927,739.278261 C1884.32716,741.300532 1865.43044,742.311652 1845.85855,742.311652 L1655.53968,742.311652 L1655.53968,966.782609 L1580.62694,966.782609 L1580.62694,258.991304 L1845.85855,258.991304 C1936.29421,258.991304 2007.1569,280.561871 2058.44877,323.703652 C2109.74064,366.845433 2135.38618,426.164492 2135.38618,501.662609 C2135.38618,556.938016 2121.38236,603.61807 2093.37431,641.704174 C2065.36625,679.790277 2025.37944,707.259046 1973.41268,724.111304 L2146.52186,966.782609 L2064.52278,966.782609 Z M1843.83388,678.610435 C1914.02275,678.610435 1967.67593,663.10659 2004.79505,632.098435 C2041.91416,601.09028 2060.47344,557.612106 2060.47344,501.662609 C2060.47344,444.364931 2041.91416,400.381197 2004.79505,369.710087 C1967.67593,339.038977 1914.02275,323.703652 1843.83388,323.703652 L1655.53968,323.703652 L1655.53968,678.610435 L1843.83388,678.610435 Z M2777.20618,434.928 L2777.20618,966.782609 L2708.36744,966.782609 L2708.36744,869.714087 C2689.47044,902.070423 2663.48745,927.179911 2630.4177,945.043304 C2597.34794,962.906698 2559.5545,971.838261 2517.03625,971.838261 C2447.52227,971.838261 2392.68804,952.458455 2352.53191,913.698261 C2312.37578,874.938067 2292.29801,818.146809 2292.29801,743.322783 L2292.29801,434.928 L2364.17375,434.928 L2364.17375,736.24487 C2364.17375,792.194367 2378.00885,834.66142 2405.67946,863.647304 C2433.35008,892.633188 2472.83072,907.125913 2524.12259,907.125913 C2580.1387,907.125913 2624.34353,890.105388 2656.73839,856.063826 C2689.13325,822.022265 2705.33044,774.668129 2705.33044,714 L2705.33044,434.928 L2777.20618,434.928 Z M3253.00334,430.883478 C3302.94542,430.883478 3348.16257,442.174322 3388.65615,464.756348 C3429.14973,487.338374 3460.86922,519.188664 3483.81558,560.308174 C3506.76194,601.427684 3518.23495,648.276259 3518.23495,700.855304 C3518.23495,753.43435 3506.76194,800.282925 3483.81558,841.402435 C3460.86922,882.521945 3429.14973,914.540755 3388.65615,937.459826 C3348.16257,960.378897 3302.94542,971.838261 3253.00334,971.838261 C3208.46041,971.838261 3168.4736,962.401138 3133.04172,943.526609 C3097.60984,924.65208 3069.09604,897.351831 3047.49946,861.625043 L3047.49946,966.782609 L2978.66073,966.782609 L2978.66073,216.523826 L3050.53647,216.523826 L3050.53647,536.041043 C3072.80793,501.662437 3101.32173,475.541828 3136.07872,457.678435 C3170.83571,439.815041 3209.81019,430.883478 3253.00334,430.883478 Z M3247.94167,908.137043 C3285.06078,908.137043 3318.80493,899.542521 3349.17511,882.353217 C3379.54529,865.163914 3403.33491,840.728506 3420.54468,809.046261 C3437.75446,777.364016 3446.35921,741.300724 3446.35921,700.855304 C3446.35921,660.409885 3437.75446,624.346593 3420.54468,592.664348 C3403.33491,560.982102 3379.54529,536.546695 3349.17511,519.357391 C3318.80493,502.168088 3285.06078,493.573565 3247.94167,493.573565 C3210.14767,493.573565 3176.2348,502.168088 3146.20207,519.357391 C3116.16933,536.546695 3092.54843,560.982102 3075.33866,592.664348 C3058.12889,624.346593 3049.52413,660.409885 3049.52413,700.855304 C3049.52413,741.300724 3058.12889,777.364016 3075.33866,809.046261 C3092.54843,840.728506 3116.16933,865.163914 3146.20207,882.353217 C3176.2348,899.542521 3210.14767,908.137043 3247.94167,908.137043 Z M3665.02344,434.928 L3736.89918,434.928 L3736.89918,966.782609 L3665.02344,966.782609 L3665.02344,434.928 Z M3701.46748,318.648 C3686.61983,318.648 3674.1345,313.592398 3664.0111,303.481043 C3653.88771,293.369689 3648.82609,281.236245 3648.82609,267.080348 C3648.82609,253.598541 3653.88771,241.802138 3664.0111,231.690783 C3674.1345,221.579428 3686.61983,216.523826 3701.46748,216.523826 C3716.31512,216.523826 3728.80045,221.410908 3738.92385,231.185217 C3749.04724,240.959527 3754.10886,252.587411 3754.10886,266.069217 C3754.10886,280.899205 3749.04724,293.369689 3738.92385,303.481043 C3728.80045,313.592398 3716.31512,318.648 3701.46748,318.648 Z M4158.03028,971.838261 C4105.38863,971.838261 4058.31555,960.378897 4016.80964,937.459826 C3975.30372,914.540755 3942.74062,882.353425 3919.11937,840.89687 C3895.49812,799.440314 3883.68767,752.76026 3883.68767,700.855304 C3883.68767,648.950349 3895.49812,602.438814 3919.11937,561.319304 C3942.74062,520.199794 3975.30372,488.180984 4016.80964,465.261913 C4058.31555,442.342842 4105.38863,430.883478 4158.03028,430.883478 C4203.92301,430.883478 4244.92214,439.815041 4281.02891,457.678435 C4317.13569,475.541828 4345.64949,501.662437 4366.57117,536.041043 L4312.91744,572.441739 C4295.37023,546.152216 4273.09909,526.43537 4246.10338,513.290609 C4219.10766,500.145847 4189.75025,493.573565 4158.03028,493.573565 C4119.56138,493.573565 4084.97364,502.168088 4054.26601,519.357391 C4023.55838,536.546695 3999.60004,560.982102 3982.39027,592.664348 C3965.1805,624.346593 3956.57574,660.409885 3956.57574,700.855304 C3956.57574,741.974814 3965.1805,778.206626 3982.39027,809.551826 C3999.60004,840.897026 4023.55838,865.163914 4054.26601,882.353217 C4084.97364,899.542521 4119.56138,908.137043 4158.03028,908.137043 C4189.75025,908.137043 4219.10766,901.733281 4246.10338,888.925565 C4273.09909,876.117849 4295.37023,856.569523 4312.91744,830.28 L4366.57117,866.680696 C4345.64949,901.059302 4316.96696,927.179911 4280.52274,945.043304 C4244.07852,962.906698 4203.24811,971.838261 4158.03028,971.838261 Z M4715.82653,971.838261 C4664.53466,971.838261 4618.30519,960.210377 4577.13672,936.954261 C4535.96825,913.698145 4503.57387,881.510814 4479.95262,840.391304 C4456.33136,799.271794 4444.52091,752.76026 4444.52091,700.855304 C4444.52091,648.950349 4456.33136,602.438814 4479.95262,561.319304 C4503.57387,520.199794 4535.96825,488.180984 4577.13672,465.261913 C4618.30519,442.342842 4664.53466,430.883478 4715.82653,430.883478 C4767.1184,430.883478 4813.34787,442.342842 4854.51634,465.261913 C4895.68481,488.180984 4927.91047,520.199794 4951.19427,561.319304 C4974.47808,602.438814 4986.11981,648.950349 4986.11981,700.855304 C4986.11981,752.76026 4974.47808,799.271794 4951.19427,840.391304 C4927.91047,881.510814 4895.68481,913.698145 4854.51634,936.954261 C4813.34787,960.210377 4767.1184,971.838261 4715.82653,971.838261 Z M4715.82653,908.137043 C4753.62054,908.137043 4787.5334,899.542521 4817.56614,882.353217 C4847.59887,865.163914 4871.05105,840.728506 4887.92338,809.046261 C4904.7957,777.364016 4913.23174,741.300724 4913.23174,700.855304 C4913.23174,660.409885 4904.7957,624.346593 4887.92338,592.664348 C4871.05105,560.982102 4847.59887,536.546695 4817.56614,519.357391 C4787.5334,502.168088 4753.62054,493.573565 4715.82653,493.573565 C4678.03252,493.573565 4644.11966,502.168088 4614.08692,519.357391 C4584.05419,536.546695 4560.43329,560.982102 4543.22352,592.664348 C4526.01375,624.346593 4517.40899,660.409885 4517.40899,700.855304 C4517.40899,741.300724 4526.01375,777.364016 4543.22352,809.046261 C4560.43329,840.728506 4584.05419,865.163914 4614.08692,882.353217 C4644.11966,899.542521 4678.03252,908.137043 4715.82653,908.137043 Z M5404.21391,430.883478 C5471.02832,430.883478 5524.17534,450.263284 5563.65658,489.023478 C5603.13782,527.783672 5622.87814,584.23789 5622.87814,658.387826 L5622.87814,966.782609 L5551.0024,966.782609 L5551.0024,665.465739 C5551.0024,610.190332 5537.1673,568.060319 5509.49669,539.074435 C5481.82608,510.088551 5442.34543,495.595826 5391.05356,495.595826 C5333.68766,495.595826 5288.30179,512.616352 5254.89459,546.657913 C5221.48739,580.699475 5204.78404,627.71657 5204.78404,687.710609 L5204.78404,966.782609 L5132.9083,966.782609 L5132.9083,434.928 L5201.74703,434.928 L5201.74703,533.007652 C5221.31893,500.651316 5248.48297,475.541828 5283.23995,457.678435 C5317.99694,439.815041 5358.32119,430.883478 5404.21391,430.883478 Z" id="Rubicon" fill="#273B49"></path>
        </g>
    </g>
</svg>