<?xml version="1.0" encoding="utf-8"?>
<svg viewBox="2105.75 -45.413 1575.526 1313.609" fill="none" xmlns="http://www.w3.org/2000/svg">
  <defs>
    <linearGradient id="paint0_linear" x1="612.729" y1="0" x2="612.729" y2="1224" gradientUnits="userSpaceOnUse">
      <stop stop-color="#E2F4FE"/>
      <stop offset="1" stop-color="#97D6ED"/>
    </linearGradient>
    <linearGradient id="paint1_linear" x1="-56.8245" y1="299.696" x2="-4.63461" y2="834.312" gradientUnits="userSpaceOnUse">
      <stop stop-color="#019ED5"/>
      <stop offset="1" stop-color="#003362"/>
    </linearGradient>
    <linearGradient id="paint2_linear" x1="746.205" y1="437.978" x2="807.142" y2="893.844" gradientUnits="userSpaceOnUse">
      <stop stop-color="#009ED5"/>
      <stop offset="1" stop-color="#003362"/>
    </linearGradient>
    <linearGradient id="paint3_linear" x1="664.533" y1="810.789" x2="704.345" y2="1179.18" gradientUnits="userSpaceOnUse">
      <stop stop-color="#009ED5"/>
      <stop offset="1" stop-color="#003362"/>
    </linearGradient>
  </defs>
  <mask id="mask0" mask-type="alpha" maskUnits="userSpaceOnUse" x="0" y="0" width="1226" height="1224">
    <path d="M612.729 1224C951.129 1224 1225.46 949.998 1225.46 612C1225.46 274.002 951.129 0 612.729 0C274.328 0 0 274.002 0 612C0 949.998 274.328 1224 612.729 1224Z" fill="white"/>
  </mask>
  <circle style="fill: rgb(255, 255, 255);" cx="2879.961" cy="610.774" r="652.849"/>
  <g mask="url(#mask0)" transform="matrix(1, 0, 0, 1, 2266.402832, 2.070756)">
    <path d="M612.729 1224C951.129 1224 1225.46 949.998 1225.46 612C1225.46 274.002 951.129 0 612.729 0C274.328 0 0 274.002 0 612C0 949.998 274.328 1224 612.729 1224Z" fill="url(#paint0_linear)"/>
    <path fill-rule="evenodd" clip-rule="evenodd" d="M837.22 435.232H900.153L1143.78 505.688L1121.3 1031.5L-673.418 804.379L-617.239 770.25C-402.345 639.698 -229.15 541.72 -97.5173 476.264C36.646 409.55 128.11 376.181 180.447 376.181C217.065 376.181 254.259 385.277 294.511 402.507C325.056 415.582 353.008 430.905 397.713 457.78C401.595 460.114 417.778 469.878 421.952 472.386C431.186 477.935 438.529 482.295 445.533 486.37C462.753 496.386 477.103 504.173 490.475 510.623C521.276 525.48 546.32 532.819 568.159 532.819C637.809 532.819 725.913 501.597 831.79 438.47L837.22 435.232Z" stroke-width="45.9" stroke="white" fill="url(#paint1_linear)"/>
    <path fill-rule="evenodd" clip-rule="evenodd" d="M1330.29 904.593L1209.15 1215.27L364.858 1353.12L-61.2648 1213.57L-219.92 899.462L-145.825 643.856L-9.03537 470.708L6.7009 504.431C55.8427 609.743 146.501 661.864 282.781 661.864C329.547 661.864 381.083 648.428 442.057 621.903C468.145 610.555 495.849 596.896 527.974 579.78C551.638 567.172 563.257 560.723 616.62 530.821C697.141 485.701 739.588 463.402 788.368 442.319C861.983 410.502 926.779 393.919 988.777 393.919C1048.59 393.919 1114.93 410.503 1186.23 441.23C1247.52 467.645 1311.37 504.067 1375.12 547.703C1428.85 584.49 1480.81 625.299 1525.27 664.739C1563.84 698.958 1593.82 729.623 1605.92 747.058C1618.62 765.362 1617.25 786.36 1603.06 804.119C1592.3 817.573 1574.18 829.582 1548.38 841.326C1502.72 862.114 1430.21 883.087 1330.29 904.593Z" stroke-width="45.9" stroke="white" fill="url(#paint2_linear)"/>
    <path fill-rule="evenodd" clip-rule="evenodd" d="M33.5712 861.045C91.9801 962.446 189.107 1015.46 327.916 1020.61C376.556 1022.42 427.808 1012.52 486.243 991.534C511.304 982.535 537.617 971.552 567.489 957.836C590.296 947.363 608.672 938.464 649.865 918.168C656.14 915.076 658.82 913.756 662.255 912.066C733.629 876.952 773.758 858.73 818.411 842.699C876.877 821.709 929.55 810.789 980.63 810.789C1136.65 810.789 1241.04 887.17 1289.22 1036.5L1295.48 1055.89L553.356 1396.84L-28.9996 1154.5L-51.0364 862.8L25.239 846.58L33.5712 861.045Z" stroke-width="45.9" stroke="white" fill="url(#paint3_linear)"/>
  </g>
  <g transform="matrix(1, 0, 0, 1, -351.687775, 1358.597656)">
    <path d="M 3663.486 -1099.182 L 3718.887 -1099.182 L 3718.887 -1089.48 L 3663.486 -1089.48 L 3663.486 -1099.182 Z" style="stroke: rgb(255, 255, 255); stroke-width: 50px; stroke-linejoin: round; stroke-linecap: round;" fill="#273B49"/>
    <path d="M 3899.507 -1149.841 C 3913.448 -1149.841 3924.366 -1145.745 3932.272 -1137.553 C 3940.32 -1129.362 3944.345 -1117.578 3944.345 -1102.2 L 3944.345 -1036.451 L 3933.566 -1036.451 L 3933.566 -1101.339 C 3933.566 -1113.985 3930.477 -1123.614 3924.298 -1130.223 C 3918.116 -1136.835 3909.493 -1140.141 3898.43 -1140.141 C 3885.78 -1140.141 3875.721 -1136.189 3868.25 -1128.284 C 3860.918 -1120.38 3857.255 -1109.744 3857.255 -1096.378 L 3857.255 -1036.451 L 3846.476 -1036.451 L 3846.476 -1101.339 C 3846.476 -1113.985 3843.385 -1123.614 3837.205 -1130.223 C 3831.025 -1136.835 3822.403 -1140.141 3811.336 -1140.141 C 3798.691 -1140.141 3788.628 -1136.189 3781.157 -1128.284 C 3773.826 -1120.38 3770.165 -1109.744 3770.165 -1096.378 L 3770.165 -1036.451 L 3759.385 -1036.451 L 3759.385 -1148.978 L 3769.732 -1148.978 L 3769.732 -1124.835 C 3773.467 -1132.739 3779.001 -1138.846 3786.333 -1143.159 C 3793.805 -1147.614 3802.641 -1149.841 3812.846 -1149.841 C 3823.048 -1149.841 3831.671 -1147.541 3838.716 -1142.943 C 3845.9 -1138.343 3851.003 -1131.589 3854.021 -1122.68 C 3857.755 -1131.016 3863.578 -1137.625 3871.483 -1142.511 C 3879.529 -1147.398 3888.87 -1149.841 3899.507 -1149.841 Z" style="stroke: rgb(255, 255, 255); stroke-width: 50px; stroke-linejoin: round; stroke-linecap: round;" fill="#273B49"/>
    <path d="M 3993.16 -1196.404 L 4003.939 -1196.404 L 4003.939 -1036.451 L 3993.16 -1036.451 L 3993.16 -1196.404 Z" style="stroke: rgb(255, 255, 255); stroke-width: 50px; stroke-linejoin: round; stroke-linecap: round;" fill="#273B49"/>
    <path d="M 2507.014 -1167.401 C 2512.008 -1177.988 2519.399 -1185.98 2529.187 -1191.372 C 2539.172 -1196.766 2551.458 -1199.461 2566.042 -1199.461 L 2566.042 -1178.788 L 2560.948 -1179.087 C 2544.366 -1179.087 2531.385 -1173.993 2521.997 -1163.805 C 2512.607 -1153.618 2507.911 -1139.335 2507.911 -1120.957 L 2507.911 -1040.654 L 2486.637 -1040.654 L 2486.637 -1198.264 L 2507.014 -1198.264 L 2507.014 -1167.401 Z" style="stroke: rgb(255, 255, 255); stroke-width: 50px; stroke-linejoin: round; stroke-linecap: round;" fill="#273B49"/>
    <path d="M 2751.927 -1198.264 L 2751.927 -1040.654 L 2731.55 -1040.654 L 2731.55 -1069.42 C 2725.96 -1059.831 2718.268 -1052.341 2708.481 -1046.947 C 2698.692 -1041.752 2687.506 -1039.156 2674.919 -1039.156 C 2654.344 -1039.156 2638.065 -1044.849 2626.079 -1056.235 C 2614.292 -1067.821 2608.401 -1084.701 2608.401 -1106.874 L 2608.401 -1198.264 L 2629.673 -1198.264 L 2629.673 -1108.972 C 2629.673 -1092.392 2633.768 -1079.806 2641.959 -1071.218 C 2650.149 -1062.628 2661.834 -1058.332 2677.017 -1058.332 C 2693.597 -1058.332 2706.681 -1063.326 2716.272 -1073.315 C 2725.856 -1083.502 2730.653 -1097.586 2730.653 -1115.564 L 2730.653 -1198.264 L 2751.927 -1198.264 Z" style="stroke: rgb(255, 255, 255); stroke-width: 50px; stroke-linejoin: round; stroke-linecap: round;" fill="#273B49"/>
    <path d="M 2895.709 -1199.461 C 2910.489 -1199.461 2923.875 -1196.066 2935.86 -1189.274 C 2947.845 -1182.682 2957.233 -1173.293 2964.025 -1161.109 C 2970.818 -1148.924 2974.215 -1135.041 2974.215 -1119.458 C 2974.215 -1103.877 2970.818 -1089.994 2964.025 -1077.81 C 2957.233 -1065.624 2947.845 -1056.136 2935.86 -1049.344 C 2923.875 -1042.552 2910.489 -1039.156 2895.709 -1039.156 C 2882.525 -1039.156 2870.638 -1041.953 2860.052 -1047.546 C 2849.663 -1053.139 2841.276 -1061.23 2834.884 -1071.817 L 2834.884 -1040.654 L 2814.505 -1040.654 L 2814.505 -1262.984 L 2835.78 -1262.984 L 2835.78 -1168.3 C 2842.374 -1178.487 2850.763 -1186.179 2860.95 -1191.372 C 2871.337 -1196.766 2882.924 -1199.461 2895.709 -1199.461 Z M 2894.21 -1058.033 C 2905.196 -1058.033 2915.185 -1060.53 2924.175 -1065.524 C 2933.165 -1070.719 2940.156 -1078.009 2945.149 -1087.398 C 2950.342 -1096.788 2952.941 -1107.473 2952.941 -1119.458 C 2952.941 -1131.443 2950.342 -1142.132 2945.149 -1151.52 C 2940.156 -1160.91 2933.165 -1168.1 2924.175 -1173.094 C 2915.185 -1178.287 2905.196 -1180.884 2894.21 -1180.884 C 2883.023 -1180.884 2872.935 -1178.287 2863.946 -1173.094 C 2855.157 -1168.1 2848.166 -1160.91 2842.972 -1151.52 C 2837.979 -1142.132 2835.48 -1131.443 2835.48 -1119.458 C 2835.48 -1107.473 2837.979 -1096.788 2842.972 -1087.398 C 2848.166 -1078.009 2855.157 -1070.719 2863.946 -1065.524 C 2872.935 -1060.53 2883.023 -1058.033 2894.21 -1058.033 Z" style="stroke: rgb(255, 255, 255); stroke-width: 50px; stroke-linejoin: round; stroke-linecap: round;" fill="#273B49"/>
    <path d="M 3020.577 -1198.264 L 3041.851 -1198.264 L 3041.851 -1040.654 L 3020.577 -1040.654 L 3020.577 -1198.264 Z M 3031.366 -1232.722 C 3026.97 -1232.722 3023.274 -1234.22 3020.277 -1237.217 C 3017.281 -1240.213 3015.782 -1243.808 3015.782 -1248.005 C 3015.782 -1251.999 3017.281 -1255.494 3020.277 -1258.49 C 3023.274 -1261.488 3026.97 -1262.984 3031.366 -1262.984 C 3035.761 -1262.984 3039.457 -1261.488 3042.452 -1258.49 C 3045.45 -1255.694 3046.947 -1252.299 3046.947 -1248.304 C 3046.947 -1243.908 3045.45 -1240.213 3042.452 -1237.217 C 3039.457 -1234.22 3035.761 -1232.722 3031.366 -1232.722 Z" style="stroke: rgb(255, 255, 255); stroke-width: 50px; stroke-linejoin: round; stroke-linecap: round;" fill="#273B49"/>
    <path d="M 3169.365 -1039.156 C 3153.785 -1039.156 3139.799 -1042.552 3127.414 -1049.344 C 3115.23 -1056.136 3105.641 -1065.624 3098.65 -1077.81 C 3091.659 -1090.195 3088.161 -1104.078 3088.161 -1119.458 C 3088.161 -1134.84 3091.659 -1148.624 3098.65 -1160.81 C 3105.641 -1172.994 3115.23 -1182.483 3127.414 -1189.274 C 3139.799 -1196.066 3153.785 -1199.461 3169.365 -1199.461 C 3182.95 -1199.461 3195.033 -1196.766 3205.62 -1191.372 C 3216.408 -1186.179 3224.899 -1178.487 3231.09 -1168.3 L 3215.209 -1157.512 C 3210.016 -1165.305 3203.422 -1171.095 3195.433 -1174.892 C 3187.443 -1178.887 3178.753 -1180.884 3169.365 -1180.884 C 3157.979 -1180.884 3147.689 -1178.287 3138.501 -1173.094 C 3129.513 -1168.1 3122.422 -1160.91 3117.227 -1151.52 C 3112.235 -1142.132 3109.735 -1131.443 3109.735 -1119.458 C 3109.735 -1107.273 3112.235 -1096.486 3117.227 -1087.098 C 3122.422 -1077.911 3129.513 -1070.719 3138.501 -1065.524 C 3147.689 -1060.53 3157.979 -1058.033 3169.365 -1058.033 C 3178.753 -1058.033 3187.443 -1059.931 3195.433 -1063.728 C 3203.422 -1067.521 3210.016 -1073.315 3215.209 -1081.105 L 3231.09 -1070.319 C 3224.899 -1060.13 3216.408 -1052.341 3205.62 -1046.947 C 3194.833 -1041.752 3182.747 -1039.156 3169.365 -1039.156 Z" style="stroke: rgb(255, 255, 255); stroke-width: 50px; stroke-linejoin: round; stroke-linecap: round;" fill="#273B49"/>
    <path d="M 3337.668 -1039.156 C 3322.486 -1039.156 3308.804 -1042.552 3296.616 -1049.344 C 3284.432 -1056.335 3274.843 -1065.924 3267.851 -1078.11 C 3260.861 -1090.294 3257.363 -1104.078 3257.363 -1119.458 C 3257.363 -1134.84 3260.861 -1148.624 3267.851 -1160.81 C 3274.843 -1172.994 3284.432 -1182.483 3296.616 -1189.274 C 3308.804 -1196.066 3322.486 -1199.461 3337.668 -1199.461 C 3352.849 -1199.461 3366.533 -1196.066 3378.717 -1189.274 C 3390.904 -1182.483 3400.391 -1172.994 3407.182 -1160.81 C 3414.176 -1148.624 3417.67 -1134.84 3417.67 -1119.458 C 3417.67 -1104.078 3414.176 -1090.294 3407.182 -1078.11 C 3400.391 -1065.924 3390.904 -1056.335 3378.717 -1049.344 C 3366.533 -1042.552 3352.849 -1039.156 3337.668 -1039.156 Z M 3337.668 -1058.033 C 3348.855 -1058.033 3358.841 -1060.53 3367.633 -1065.524 C 3376.621 -1070.719 3383.61 -1078.009 3388.607 -1087.398 C 3393.6 -1096.788 3396.097 -1107.473 3396.097 -1119.458 C 3396.097 -1131.443 3393.6 -1142.132 3388.607 -1151.52 C 3383.61 -1160.91 3376.621 -1168.1 3367.633 -1173.094 C 3358.841 -1178.287 3348.855 -1180.884 3337.668 -1180.884 C 3326.48 -1180.884 3316.392 -1178.287 3307.403 -1173.094 C 3298.614 -1168.1 3291.624 -1160.91 3286.43 -1151.52 C 3281.436 -1142.132 3278.938 -1131.443 3278.938 -1119.458 C 3278.938 -1107.473 3281.436 -1096.788 3286.43 -1087.398 C 3291.624 -1078.009 3298.614 -1070.719 3307.403 -1065.524 C 3316.392 -1060.53 3326.48 -1058.033 3337.668 -1058.033 Z" style="stroke: rgb(255, 255, 255); stroke-width: 50px; stroke-linejoin: round; stroke-linecap: round;" fill="#273B49"/>
    <path d="M 3544.403 -1199.461 C 3564.18 -1199.461 3579.862 -1193.669 3591.448 -1182.084 C 3603.232 -1170.697 3609.125 -1154.018 3609.125 -1132.044 L 3609.125 -1040.654 L 3587.85 -1040.654 L 3587.85 -1129.946 C 3587.85 -1146.327 3583.756 -1158.811 3575.566 -1167.401 C 3567.375 -1175.99 3555.69 -1180.285 3540.509 -1180.285 C 3523.527 -1180.285 3510.044 -1175.192 3500.058 -1165.005 C 3490.268 -1155.016 3485.373 -1141.133 3485.373 -1123.354 L 3485.373 -1040.654 L 3464.102 -1040.654 L 3464.102 -1198.264 L 3484.474 -1198.264 L 3484.474 -1169.199 C 3490.268 -1178.788 3498.26 -1186.179 3508.447 -1191.372 C 3518.834 -1196.766 3530.821 -1199.461 3544.403 -1199.461 Z" style="stroke: rgb(255, 255, 255); stroke-width: 50px; stroke-linejoin: round; stroke-linecap: round;" fill="#273B49"/>
  </g>
  <path d="M 3311.71 260.343 L 3367.111 260.343 L 3367.111 270.045 L 3311.71 270.045 L 3311.71 260.343 Z" style="stroke: rgb(255, 255, 255); stroke-linecap: round; stroke-linejoin: round; stroke-width: 0px;" fill="#273B49"/>
  <path d="M 3547.731 209.684 C 3561.672 209.684 3572.59 213.78 3580.496 221.972 C 3588.544 230.163 3592.569 241.947 3592.569 257.325 L 3592.569 323.074 L 3581.79 323.074 L 3581.79 258.186 C 3581.79 245.54 3578.701 235.911 3572.522 229.302 C 3566.34 222.69 3557.717 219.384 3546.654 219.384 C 3534.004 219.384 3523.945 223.336 3516.474 231.241 C 3509.142 239.145 3505.479 249.781 3505.479 263.147 L 3505.479 323.074 L 3494.7 323.074 L 3494.7 258.186 C 3494.7 245.54 3491.609 235.911 3485.429 229.302 C 3479.249 222.69 3470.627 219.384 3459.56 219.384 C 3446.915 219.384 3436.852 223.336 3429.381 231.241 C 3422.05 239.145 3418.389 249.781 3418.389 263.147 L 3418.389 323.074 L 3407.609 323.074 L 3407.609 210.547 L 3417.956 210.547 L 3417.956 234.69 C 3421.691 226.786 3427.225 220.679 3434.557 216.366 C 3442.029 211.911 3450.865 209.684 3461.07 209.684 C 3471.272 209.684 3479.895 211.984 3486.94 216.582 C 3494.124 221.182 3499.227 227.936 3502.245 236.845 C 3505.979 228.509 3511.802 221.9 3519.707 217.014 C 3527.753 212.127 3537.094 209.684 3547.731 209.684 Z" style="stroke: rgb(255, 255, 255); stroke-linecap: round; stroke-linejoin: round; stroke-width: 0px;" fill="#273B49"/>
  <path d="M 3641.384 163.121 L 3652.163 163.121 L 3652.163 323.074 L 3641.384 323.074 L 3641.384 163.121 Z" style="stroke: rgb(255, 255, 255); stroke-linecap: round; stroke-linejoin: round; stroke-width: 0px;" fill="#273B49"/>
  <path d="M 2155.238 192.124 C 2160.232 181.537 2167.623 173.545 2177.411 168.153 C 2187.396 162.759 2199.682 160.064 2214.266 160.064 L 2214.266 180.737 L 2209.172 180.438 C 2192.59 180.438 2179.609 185.532 2170.221 195.72 C 2160.831 205.907 2156.135 220.19 2156.135 238.568 L 2156.135 318.871 L 2134.861 318.871 L 2134.861 161.261 L 2155.238 161.261 L 2155.238 192.124 Z" style="stroke: rgb(255, 255, 255); stroke-linecap: round; stroke-linejoin: round; stroke-width: 0px;" fill="#273B49"/>
  <path d="M 2400.151 161.261 L 2400.151 318.871 L 2379.774 318.871 L 2379.774 290.105 C 2374.184 299.694 2366.492 307.184 2356.705 312.578 C 2346.916 317.773 2335.73 320.369 2323.143 320.369 C 2302.568 320.369 2286.289 314.676 2274.303 303.29 C 2262.516 291.704 2256.625 274.824 2256.625 252.651 L 2256.625 161.261 L 2277.897 161.261 L 2277.897 250.553 C 2277.897 267.133 2281.992 279.719 2290.183 288.307 C 2298.373 296.897 2310.058 301.193 2325.241 301.193 C 2341.821 301.193 2354.905 296.199 2364.496 286.21 C 2374.08 276.023 2378.877 261.939 2378.877 243.961 L 2378.877 161.261 L 2400.151 161.261 Z" style="stroke: rgb(255, 255, 255); stroke-linecap: round; stroke-linejoin: round; stroke-width: 0px;" fill="#273B49"/>
  <path d="M 2543.933 160.064 C 2558.713 160.064 2572.099 163.459 2584.084 170.251 C 2596.069 176.843 2605.457 186.232 2612.249 198.416 C 2619.042 210.601 2622.439 224.484 2622.439 240.067 C 2622.439 255.648 2619.042 269.531 2612.249 281.715 C 2605.457 293.901 2596.069 303.389 2584.084 310.181 C 2572.099 316.973 2558.713 320.369 2543.933 320.369 C 2530.749 320.369 2518.862 317.572 2508.276 311.979 C 2497.887 306.386 2489.5 298.295 2483.108 287.708 L 2483.108 318.871 L 2462.729 318.871 L 2462.729 96.541 L 2484.004 96.541 L 2484.004 191.225 C 2490.598 181.038 2498.987 173.346 2509.174 168.153 C 2519.561 162.759 2531.148 160.064 2543.933 160.064 Z M 2542.434 301.492 C 2553.42 301.492 2563.409 298.995 2572.399 294.001 C 2581.389 288.806 2588.38 281.516 2593.373 272.127 C 2598.566 262.737 2601.165 252.052 2601.165 240.067 C 2601.165 228.082 2598.566 217.393 2593.373 208.005 C 2588.38 198.615 2581.389 191.425 2572.399 186.431 C 2563.409 181.238 2553.42 178.641 2542.434 178.641 C 2531.247 178.641 2521.159 181.238 2512.17 186.431 C 2503.381 191.425 2496.39 198.615 2491.196 208.005 C 2486.203 217.393 2483.704 228.082 2483.704 240.067 C 2483.704 252.052 2486.203 262.737 2491.196 272.127 C 2496.39 281.516 2503.381 288.806 2512.17 294.001 C 2521.159 298.995 2531.247 301.492 2542.434 301.492 Z" style="stroke: rgb(255, 255, 255); stroke-linecap: round; stroke-linejoin: round; stroke-width: 0px;" fill="#273B49"/>
  <path d="M 2668.801 161.261 L 2690.075 161.261 L 2690.075 318.871 L 2668.801 318.871 L 2668.801 161.261 Z M 2679.59 126.803 C 2675.194 126.803 2671.498 125.305 2668.501 122.308 C 2665.505 119.312 2664.006 115.717 2664.006 111.52 C 2664.006 107.526 2665.505 104.031 2668.501 101.035 C 2671.498 98.037 2675.194 96.541 2679.59 96.541 C 2683.985 96.541 2687.681 98.037 2690.676 101.035 C 2693.674 103.831 2695.171 107.226 2695.171 111.221 C 2695.171 115.617 2693.674 119.312 2690.676 122.308 C 2687.681 125.305 2683.985 126.803 2679.59 126.803 Z" style="stroke: rgb(255, 255, 255); stroke-linecap: round; stroke-linejoin: round; stroke-width: 0px;" fill="#273B49"/>
  <path d="M 2817.589 320.369 C 2802.009 320.369 2788.023 316.973 2775.638 310.181 C 2763.454 303.389 2753.865 293.901 2746.874 281.715 C 2739.883 269.33 2736.385 255.447 2736.385 240.067 C 2736.385 224.685 2739.883 210.901 2746.874 198.715 C 2753.865 186.531 2763.454 177.042 2775.638 170.251 C 2788.023 163.459 2802.009 160.064 2817.589 160.064 C 2831.174 160.064 2843.257 162.759 2853.844 168.153 C 2864.632 173.346 2873.123 181.038 2879.314 191.225 L 2863.433 202.013 C 2858.24 194.22 2851.646 188.43 2843.657 184.633 C 2835.667 180.638 2826.977 178.641 2817.589 178.641 C 2806.203 178.641 2795.913 181.238 2786.725 186.431 C 2777.737 191.425 2770.646 198.615 2765.451 208.005 C 2760.459 217.393 2757.959 228.082 2757.959 240.067 C 2757.959 252.252 2760.459 263.039 2765.451 272.427 C 2770.646 281.614 2777.737 288.806 2786.725 294.001 C 2795.913 298.995 2806.203 301.492 2817.589 301.492 C 2826.977 301.492 2835.667 299.594 2843.657 295.797 C 2851.646 292.004 2858.24 286.21 2863.433 278.42 L 2879.314 289.206 C 2873.123 299.395 2864.632 307.184 2853.844 312.578 C 2843.057 317.773 2830.971 320.369 2817.589 320.369 Z" style="stroke: rgb(255, 255, 255); stroke-linecap: round; stroke-linejoin: round; stroke-width: 0px;" fill="#273B49"/>
  <path d="M 2985.892 320.369 C 2970.71 320.369 2957.028 316.973 2944.84 310.181 C 2932.656 303.19 2923.067 293.601 2916.075 281.415 C 2909.085 269.231 2905.587 255.447 2905.587 240.067 C 2905.587 224.685 2909.085 210.901 2916.075 198.715 C 2923.067 186.531 2932.656 177.042 2944.84 170.251 C 2957.028 163.459 2970.71 160.064 2985.892 160.064 C 3001.073 160.064 3014.757 163.459 3026.941 170.251 C 3039.128 177.042 3048.615 186.531 3055.406 198.715 C 3062.4 210.901 3065.894 224.685 3065.894 240.067 C 3065.894 255.447 3062.4 269.231 3055.406 281.415 C 3048.615 293.601 3039.128 303.19 3026.941 310.181 C 3014.757 316.973 3001.073 320.369 2985.892 320.369 Z M 2985.892 301.492 C 2997.079 301.492 3007.065 298.995 3015.857 294.001 C 3024.845 288.806 3031.834 281.516 3036.831 272.127 C 3041.824 262.737 3044.321 252.052 3044.321 240.067 C 3044.321 228.082 3041.824 217.393 3036.831 208.005 C 3031.834 198.615 3024.845 191.425 3015.857 186.431 C 3007.065 181.238 2997.079 178.641 2985.892 178.641 C 2974.704 178.641 2964.616 181.238 2955.627 186.431 C 2946.838 191.425 2939.848 198.615 2934.654 208.005 C 2929.66 217.393 2927.162 228.082 2927.162 240.067 C 2927.162 252.052 2929.66 262.737 2934.654 272.127 C 2939.848 281.516 2946.838 288.806 2955.627 294.001 C 2964.616 298.995 2974.704 301.492 2985.892 301.492 Z" style="stroke: rgb(255, 255, 255); stroke-linecap: round; stroke-linejoin: round; stroke-width: 0px;" fill="#273B49"/>
  <path d="M 3192.627 160.064 C 3212.404 160.064 3228.086 165.856 3239.672 177.441 C 3251.456 188.828 3257.349 205.507 3257.349 227.481 L 3257.349 318.871 L 3236.074 318.871 L 3236.074 229.579 C 3236.074 213.198 3231.98 200.714 3223.79 192.124 C 3215.599 183.535 3203.914 179.24 3188.733 179.24 C 3171.751 179.24 3158.268 184.333 3148.282 194.52 C 3138.492 204.509 3133.597 218.392 3133.597 236.171 L 3133.597 318.871 L 3112.326 318.871 L 3112.326 161.261 L 3132.698 161.261 L 3132.698 190.326 C 3138.492 180.737 3146.484 173.346 3156.671 168.153 C 3167.058 162.759 3179.045 160.064 3192.627 160.064 Z" style="stroke: rgb(255, 255, 255); stroke-linecap: round; stroke-linejoin: round; stroke-width: 0px;" fill="#273B49"/>
</svg>